# Blender v2.81 (sub 16) OBJ File: 'cube.blend'
# www.blender.org
mtllib grid.mtl
o Cube
v 1.000000 0.050000 -1.000000
v 1.000000 -0.050000 -1.000000
v 1.000000 0.050000 1.000000
v 1.000000 -0.050000 1.000000
v -1.000000 0.050000 -1.000000
v -1.000000 -0.050000 -1.000000
v -1.000000 0.050000 1.000000
v -1.000000 -0.050000 1.000000
vt 0.375000 0.750000
vt 0.625000 0.750000
vt 0.625000 1.000000
vt 0.375000 1.000000
vt 0.375000 0.000000
vt 0.625000 0.000000
vt 0.625000 0.250000
vt 0.375000 0.250000
vt 0.125000 0.500000
vt 0.375000 0.500000
vt 0.125000 0.750000
vt 0.625000 0.500000
vt 0.000100 0.000100
vt 0.999900 0.000100
vt 0.999900 0.999900
vt 0.000100 0.999900
vn 0.0000 0.0000 1.0000
vn -1.0000 0.0000 0.0000
vn 0.0000 -1.0000 0.0000
vn 1.0000 0.0000 0.0000
vn 0.0000 0.0000 -1.0000
vn 0.0000 1.0000 0.0000
usemtl Material
s off
f 4/1/1 3/2/1 7/3/1 8/4/1
f 8/5/2 7/6/2 5/7/2 6/8/2
f 6/9/3 2/10/3 4/1/3 8/11/3
f 2/10/4 1/12/4 3/2/4 4/1/4
f 6/8/5 5/7/5 1/12/5 2/10/5
usemtl Texture
f 1/13/6 5/14/6 7/15/6 3/16/6
